<?xml version="1.0" encoding="utf-8"?>
<!-- Generator: Adobe Illustrator 24.1.0, SVG Export Plug-In . SVG Version: 6.00 Build 0)  -->
<svg version="1.1" id="图层_1" xmlns="http://www.w3.org/2000/svg" xmlns:xlink="http://www.w3.org/1999/xlink" x="0px" y="0px"
	 viewBox="0 0 1024 1024" style="enable-background:new 0 0 1024 1024;" xml:space="preserve">
<style type="text/css">
	.st0{fill:url(#SVGID_1_);}
	.st1{fill:url(#SVGID_2_);}
	.st2{fill:url(#SVGID_3_);}
	.st3{fill:url(#SVGID_4_);}
	.st4{fill:url(#SVGID_5_);}
	.st5{fill:url(#SVGID_6_);}
	.st6{fill:url(#SVGID_7_);}
	.st7{enable-background:new    ;}
	.st8{clip-path:url(#SVGID_9_);enable-background:new    ;}
	.st9{fill:#4D4D4D;}
	.st10{fill:url(#SVGID_10_);}
	.st11{fill:url(#SVGID_11_);}
	.st12{fill:url(#SVGID_12_);}
	.st13{fill:url(#SVGID_13_);}
	.st14{clip-path:url(#SVGID_15_);enable-background:new    ;}
	.st15{fill:#999999;}
	.st16{clip-path:url(#SVGID_17_);enable-background:new    ;}
	.st17{fill:#949494;}
	.st18{fill:#8F8F8F;}
	.st19{fill:#8A8A8A;}
	.st20{fill:#858585;}
	.st21{clip-path:url(#SVGID_19_);enable-background:new    ;}
	.st22{fill:#434343;}
	.st23{clip-path:url(#SVGID_21_);enable-background:new    ;}
	.st24{fill:#454545;}
	.st25{fill:#484848;}
	.st26{fill:#4A4A4A;}
	.st27{fill:url(#SVGID_22_);}
	.st28{fill:url(#SVGID_23_);}
	.st29{fill:url(#SVGID_24_);}
	.st30{font-family:'PingFangSC-Light-GBpc-EUC-H';}
	.st31{font-size:48px;}
</style>
<g id="暂无相关搜索">
	
		<linearGradient id="SVGID_1_" gradientUnits="userSpaceOnUse" x1="552.9043" y1="519.7572" x2="552.9043" y2="579.7572" gradientTransform="matrix(1 0 0 1 0 201)">
		<stop  offset="0" style="stop-color:#E8E8E8"/>
		<stop  offset="0.6" style="stop-color:#F8F8F8;stop-opacity:0.5"/>
		<stop  offset="1" style="stop-color:#FFFFFF;stop-opacity:0"/>
	</linearGradient>
	<path class="st0" d="M776.1,780.8c0-16.6-100-60-223.2-60s-223.2,43.4-223.2,60H776.1z"/>
	<g>
		
			<linearGradient id="SVGID_2_" gradientUnits="userSpaceOnUse" x1="402.2043" y1="-30.8428" x2="402.2043" y2="132.0572" gradientTransform="matrix(1 0 0 1 0 201)">
			<stop  offset="0" style="stop-color:#E8E8E8"/>
			<stop  offset="0.6" style="stop-color:#F9F9F9;stop-opacity:0.1"/>
			<stop  offset="1" style="stop-color:#FFFFFF;stop-opacity:0"/>
		</linearGradient>
		<path class="st1" d="M531,275.1c0-25.5-20.4-46.2-45.8-46.6c0.6-3.2,1-6.5,1-9.8c0-26.8-21.7-48.5-48.5-48.5
			c-18,0-33.7,9.8-42.1,24.4c-5.2-2.3-10.9-3.5-16.8-3.5c-17.9,0-33.1,11.1-39.2,26.8c-2.7-0.4-5.5-0.6-8.3-0.6
			c-32,0-57.9,25.9-57.9,57.9s25.9,57.9,57.9,57.9c13,0,25-4.3,34.6-11.5h113.4c1.6,0.2,3.3,0.3,5,0.3s3.4-0.1,5-0.3l0,0l0,0
			C512.7,319,531,299.2,531,275.1z"/>
		
			<linearGradient id="SVGID_3_" gradientUnits="userSpaceOnUse" x1="640.4543" y1="-42.9428" x2="640.4543" y2="169.3572" gradientTransform="matrix(1 0 0 1 0 201)">
			<stop  offset="0" style="stop-color:#E8E8E8"/>
			<stop  offset="0.8" style="stop-color:#F6F6F6;stop-opacity:0.1"/>
			<stop  offset="1" style="stop-color:#FFFFFF;stop-opacity:0"/>
		</linearGradient>
		<path class="st2" d="M832.4,294.5c0-35-28.4-63.4-63.4-63.4c-4.5,0-8.9,0.5-13.2,1.4c-7.4-42.2-44.2-74.4-88.6-74.4
			c-32.2,0-60.4,16.9-76.3,42.3c-3-0.4-6.2-0.7-9.3-0.7c-26.3,0-49,15.3-59.7,37.4c-2.2-0.2-4.4-0.3-6.6-0.3
			c-36.9,0-66.8,29.9-66.8,66.8s29.9,66.8,66.8,66.8c14.8,0,28.5-4.8,39.6-13h206.2c2.6,0.3,5.2,0.5,7.8,0.5s5.2-0.2,7.7-0.5h0.3
			l0,0C808.3,353.5,832.4,326.8,832.4,294.5z"/>
	</g>
	<g>
		
			<linearGradient id="SVGID_4_" gradientUnits="userSpaceOnUse" x1="680.426" y1="701.3989" x2="851.1742" y2="701.3989" gradientTransform="matrix(-0.9879 0.1548 -0.1548 -0.9879 1160.6328 921.5144)">
			<stop  offset="0" style="stop-color:#EBEBEB"/>
			<stop  offset="1" style="stop-color:#C5C5C7"/>
		</linearGradient>
		<path class="st3" d="M389.2,407.6c-29.1,3.6-65-26.6-66.6-27.9c-3.2-2.8-5.8-5.7-7.9-8.6c-24.1,1.7-50.7-10.7-77.3-36.3
			c-22.2-21.3-37-44.6-37.1-44.9c-0.6-0.9-0.3-2.2,0.6-2.8c0.9-0.6,2.2-0.3,2.8,0.6c0.5,0.9,51.9,81.4,108.5,79.5
			c-5.9-10.2-6-20.3-2.1-26.8c4.1-6.7,12.2-8.7,21-5.2l0.3,0.1c9.6,5.7,11,12.1,10.5,16.4c-1.1,8.5-10.3,15.6-18.9,18.1h-0.2
			c-1.1,0.2-2.3,0.4-3.4,0.6c1.7,2.1,3.6,4.1,5.9,6.1c0.4,0.3,36.1,30.3,63.5,26.9c1.1-0.1,2.1,0.6,2.2,1.7
			C391,406.4,390.3,407.4,389.2,407.6L389.2,407.6z M337.8,351.3c0.7-5.7-4.1-9.9-8.4-12.4c-6.9-2.7-12.9-1.4-15.9,3.7
			c-3.4,5.5-2.9,14.9,3.2,24.3c1.7-0.2,3.4-0.5,5.2-0.8C330.2,363.5,337,357.2,337.8,351.3z"/>
	</g>
	
		<linearGradient id="SVGID_5_" gradientUnits="userSpaceOnUse" x1="-1152.8508" y1="2090.115" x2="-1219.7947" y2="2080.5613" gradientTransform="matrix(-0.2858 -0.9583 0.9583 -0.2858 -2074.0249 12.6345)">
		<stop  offset="0" style="stop-color:#EBEBEB"/>
		<stop  offset="1" style="stop-color:#C5C5C7"/>
	</linearGradient>
	<path class="st4" d="M288.8,583.2c-11.8-8.6-1.8-50.5-40-46.7c0,0-6.3-9.1-6.4-13.6c0-0.4-0.4-0.6-0.7-0.3l-1.2,0.9
		c-0.2,0.1-0.3,0.4-0.3,0.6c0,1.3,0.3,5.8,5.5,14.1c0,0-20.4,39.3,42.2,45.9C288.8,583.2,288.8,583.7,288.8,583.2z"/>
	<g>
		
			<linearGradient id="SVGID_6_" gradientUnits="userSpaceOnUse" x1="1493.0878" y1="-351.7753" x2="1468.5555" y2="-367.4044" gradientTransform="matrix(-0.9763 0.2164 0.2164 0.9763 2357.0869 693.8152)">
			<stop  offset="0" style="stop-color:#EBEBEB"/>
			<stop  offset="1" style="stop-color:#C5C5C7"/>
		</linearGradient>
		<path class="st5" d="M854.9,700c-26.3-15.1-36.6-34.5-40.6-48.1c-4.4-14.8-2.5-26-2.5-26.5c0.2-1.1,1.2-1.8,2.3-1.6
			s1.8,1.2,1.6,2.3c0,0.1-1.8,10.9,2.4,24.9c3.9,12.9,13.7,31.3,38.7,45.6c1,0.5,1.3,1.8,0.7,2.7c-0.3,0.5-0.8,0.8-1.3,1
			C855.8,700.3,855.3,700.2,854.9,700z"/>
	</g>
	
		<linearGradient id="SVGID_7_" gradientUnits="userSpaceOnUse" x1="1159.8314" y1="589.9846" x2="1159.8314" y2="618.8259" gradientTransform="matrix(-0.9418 -0.3361 -0.3361 0.9418 2056.3979 556.9852)">
		<stop  offset="0" style="stop-color:#EBEBEB"/>
		<stop  offset="1" style="stop-color:#C5C5C7"/>
	</linearGradient>
	<path class="st6" d="M741.5,715.3c-1,0.3-1.7,1.3-1.5,2.3c0.5,2.7,2.9,7.1,4.1,9.2c0.4,0.7,0.4,1.5,0,2.1c-2.5,4.1-1,12.6,8.3,19.1
		c17.4,10.1,35.6,0.7,31.9-0.9c-4.8-2.1-4.4-2.1-14.2-18.8c-8.4-14.2-18.5-1.6-23.1-4c-4.5-2.3-4-9.3-4-9.3L741.5,715.3z"/>
	<g class="st7">
		<g>
			<g>
				<defs>
					<path id="SVGID_8_" d="M497,431.7c11.5-0.4,22.6,1.2,33,4.5l9,2.9c-10.4-3.3-21.4-4.9-33-4.5
						C503.3,433.8,499.7,432.6,497,431.7z"/>
				</defs>
				<clipPath id="SVGID_9_">
					<use xlink:href="#SVGID_8_"  style="overflow:visible;"/>
				</clipPath>
				<g class="st8">
					<path class="st9" d="M506,434.6l-9-2.9c11.5-0.4,22.6,1.2,33,4.5l9,2.9C528.7,435.8,517.6,434.2,506,434.6"/>
				</g>
			</g>
		</g>
	</g>
	<g>
		
			<linearGradient id="SVGID_10_" gradientUnits="userSpaceOnUse" x1="572.0825" y1="480.3028" x2="649.9697" y2="480.3028" gradientTransform="matrix(0.9885 0.1512 -0.1512 0.9885 82.338 100.1917)">
			<stop  offset="0" style="stop-color:#A5A5A5"/>
			<stop  offset="1" style="stop-color:#BFBFBF"/>
		</linearGradient>
		<path class="st10" d="M641.3,720.9L589,649.6c-3.1-4.2-2.2-10.4,2-13.7l18.7-14.9c0.1-0.1,0.2-0.1,0.3-0.2
			c0.2-0.2,0.4-0.3,0.6-0.4c0.1-0.1,0.2-0.1,0.3-0.2c0.2-0.1,0.4-0.2,0.6-0.3c0.1-0.1,0.3-0.1,0.4-0.2c0.2-0.1,0.3-0.1,0.5-0.2
			c0.1,0,0.3-0.1,0.4-0.1c0.2-0.1,0.3-0.1,0.5-0.1c0.1,0,0.3-0.1,0.4-0.1c0.2-0.1,0.5-0.1,0.7-0.1c0.1,0,0.2,0,0.3,0
			c0.3,0,0.7,0,1,0c0,0,0,0,0.1,0c0.3,0,0.6,0,0.9,0.1c1,0.1,2,0.4,3,0.9l-8.5-4.2c-0.9-0.5-1.9-0.8-3-0.9c-0.3,0-0.6-0.1-0.9-0.1
			l0,0l0,0c-0.3,0-0.7,0-1,0c-0.1,0-0.2,0-0.3,0c-0.2,0-0.5,0.1-0.7,0.1c-0.1,0-0.1,0-0.2,0c-0.1,0-0.1,0-0.2,0.1
			c-0.2,0-0.3,0.1-0.5,0.2c-0.1,0-0.3,0.1-0.4,0.1c-0.2,0.1-0.3,0.1-0.5,0.2c-0.1,0-0.2,0.1-0.3,0.1c0,0-0.1,0-0.1,0.1
			c-0.2,0.1-0.4,0.2-0.6,0.3c-0.1,0.1-0.2,0.1-0.3,0.2c-0.2,0.1-0.4,0.3-0.6,0.4c-0.1,0.1-0.1,0.1-0.2,0.1c0,0,0,0-0.1,0.1
			l-18.7,14.9c-4.2,3.4-5.1,9.5-2,13.7l52.3,71.3c0.9,1.2,2,2.1,3.2,2.7l8.5,4.2C643.3,723,642.2,722.1,641.3,720.9z"/>
		<g>
			
				<linearGradient id="SVGID_11_" gradientUnits="userSpaceOnUse" x1="581.1028" y1="481.7645" x2="678.7031" y2="481.7645" gradientTransform="matrix(0.9885 0.1512 -0.1512 0.9885 82.338 100.1917)">
				<stop  offset="0" style="stop-color:#EBEBEB"/>
				<stop  offset="1" style="stop-color:#C5C5C7"/>
			</linearGradient>
			<path class="st11" d="M616.8,618.9c2.4,0.3,4.7,1.5,6.2,3.6l52.3,71.3c3.1,4.2,2.2,10.4-2,13.7l-18.7,14.9
				c-2.1,1.7-4.6,2.3-7.1,2.1c-2.4-0.3-4.7-1.5-6.2-3.6L589,649.6c-3.1-4.2-2.2-10.4,2-13.7l18.7-14.9
				C611.9,619.3,614.4,618.6,616.8,618.9z"/>
		</g>
		<g>
			
				<linearGradient id="SVGID_12_" gradientUnits="userSpaceOnUse" x1="536.0323" y1="433.6818" x2="578.6646" y2="433.6818" gradientTransform="matrix(0.9885 0.1512 -0.1512 0.9885 82.338 100.1917)">
				<stop  offset="0" style="stop-color:#A5A5A5"/>
				<stop  offset="1" style="stop-color:#D1D1D1"/>
			</linearGradient>
			<polygon class="st12" points="585.7,636.5 582.9,635.1 549.7,589.9 552.6,591.3 			"/>
		</g>
		<g>
			
				<linearGradient id="SVGID_13_" gradientUnits="userSpaceOnUse" x1="539.9067" y1="424.5646" x2="597.3168" y2="424.5646" gradientTransform="matrix(0.9885 0.1512 -0.1512 0.9885 82.338 100.1917)">
				<stop  offset="0" style="stop-color:#EBEBEB"/>
				<stop  offset="1" style="stop-color:#C5C5C7"/>
			</linearGradient>
			<path class="st13" d="M570.9,574.8c2.4,0.3,4.7,1.5,6.2,3.6l30.1,40.9l-21.5,17.1l-30.1-40.9c-3.1-4.2-2.2-10.4,2-13.7l6.2-4.9
				C565.9,575.2,568.5,574.6,570.9,574.8z"/>
		</g>
		<g class="st7">
			<g>
				<g>
					<defs>
						<path id="SVGID_14_" d="M458.3,597.8l-8.5-4.2c9.7,4.8,20.5,8.1,31.9,9.5l8.5,4.2C478.8,605.9,468.1,602.6,458.3,597.8z"/>
					</defs>
					<clipPath id="SVGID_15_">
						<use xlink:href="#SVGID_14_"  style="overflow:visible;"/>
					</clipPath>
					<g class="st14">
						<path class="st15" d="M458.3,597.8l-8.5-4.2c9.7,4.8,20.5,8.1,31.9,9.5l8.5,4.2C478.8,605.9,468.1,602.6,458.3,597.8"/>
					</g>
				</g>
			</g>
		</g>
		<g class="st7">
			<g>
				<g>
					<defs>
						<path id="SVGID_16_" d="M544.9,402.2l8.5,4.2c37.8,18.8,60.8,61.5,53.9,107.6c-8.6,58-61.1,99.8-117.1,93.2l-8.5-4.2
							c56,6.6,108.5-35.3,117.1-93.2C605.7,463.7,582.8,421,544.9,402.2z"/>
					</defs>
					<clipPath id="SVGID_17_">
						<use xlink:href="#SVGID_16_"  style="overflow:visible;"/>
					</clipPath>
					<g class="st16">
						<path class="st15" d="M490.2,607.2l-8.5-4.2c3.3,0.4,6.6,0.6,9.9,0.7l8.5,4.2C496.8,607.9,493.5,607.6,490.2,607.2"/>
						<path class="st17" d="M500.1,607.9l-8.5-4.2c8.4,0.1,16.6-0.8,24.5-2.6l8.5,4.2C516.7,607.1,508.5,608.1,500.1,607.9"/>
						<path class="st18" d="M524.7,605.3l-8.5-4.2c7.2-1.7,14.1-4.1,20.7-7.2l8.5,4.2C538.7,601.2,531.8,603.6,524.7,605.3"/>
						<path class="st19" d="M545.4,598l-8.5-4.2c7.3-3.4,14.2-7.7,20.6-12.7l8.5,4.2C559.6,590.3,552.7,594.6,545.4,598"/>
						<path class="st20" d="M565.9,585.3l-8.5-4.2c21.5-16.9,37-42,41.4-71.3c6.9-46.1-16.1-88.8-53.9-107.6l8.5,4.2
							c37.8,18.8,60.8,61.5,53.9,107.6C603,543.3,587.4,568.4,565.9,585.3"/>
					</g>
				</g>
			</g>
		</g>
		<g class="st7">
			<g>
				<g>
					<defs>
						<path id="SVGID_18_" d="M449.9,593.6c-11.1-5.5-20.9-13.1-29-22.1c1.6,0.8,3.2,1.6,4.8,2.4c0.5,0.3,1.1,0.5,1.6,0.8
							c0.2,0.1,0.4,0.2,0.5,0.3c0.3,0.1,0.7,0.4,1,0.5c0.2,0.1,0.3,0.2,0.5,0.2c8.2,9.1,17.9,16.6,29,22.1
							C455.8,596.5,452.4,594.8,449.9,593.6z"/>
					</defs>
					<clipPath id="SVGID_19_">
						<use xlink:href="#SVGID_18_"  style="overflow:visible;"/>
					</clipPath>
					<g class="st21">
						<path class="st22" d="M458.3,597.8l-8.5-4.2C412,574.8,389,532.1,395.9,486c4.4-29.3,19.9-54.4,41.4-71.3l8.5,4.2
							c-21.5,16.9-37,42-41.4,71.3C397.6,536.3,420.5,579,458.3,597.8"/>
					</g>
				</g>
			</g>
		</g>
		<g class="st7">
			<g>
				<g>
					<defs>
						<path id="SVGID_20_" d="M395.9,486c8.6-58,61.1-99.8,117.1-93.2l8.5,4.2c-56-6.6-108.5,35.3-117.1,93.2l0,0
							c-4.8,32.6,5.2,63.5,24.9,85.5c-0.3-0.1-0.7-0.3-1-0.5s-0.7-0.4-1.1-0.5c-0.3-0.2-0.8-0.4-1.1-0.5c-0.3-0.2-0.8-0.4-1.1-0.6
							c-0.3-0.2-0.8-0.4-1.1-0.6c-0.3-0.2-0.8-0.4-1.1-0.5c-0.3-0.2-0.7-0.4-1.1-0.5c-0.3-0.1-0.7-0.3-1-0.5
							C401.1,549.5,391.1,518.6,395.9,486z"/>
					</defs>
					<clipPath id="SVGID_21_">
						<use xlink:href="#SVGID_20_"  style="overflow:visible;"/>
					</clipPath>
					<g class="st23">
						<path class="st22" d="M458.3,597.8l-8.5-4.2C412,574.8,389,532.1,395.9,486c4.4-29.3,19.9-54.4,41.4-71.3l8.5,4.2
							c-21.5,16.9-37,42-41.4,71.3C397.6,536.3,420.5,579,458.3,597.8"/>
						<path class="st24" d="M445.8,418.9l-8.5-4.2c6.4-5,13.3-9.3,20.6-12.7l8.5,4.2C459.1,409.6,452.2,413.9,445.8,418.9"/>
						<path class="st25" d="M466.4,406.2l-8.5-4.2c6.6-3.1,13.5-5.6,20.7-7.2l8.5,4.2C479.9,400.6,473,403.1,466.4,406.2"/>
						<path class="st26" d="M487.1,398.9l-8.5-4.2c8-1.9,16.2-2.8,24.5-2.6l8.5,4.2C503.3,396.2,495,397.1,487.1,398.9"/>
						<path class="st9" d="M511.6,396.3l-8.5-4.2c3.3,0.1,6.6,0.3,9.9,0.7l8.5,4.2C518.2,396.6,514.9,396.4,511.6,396.3"/>
					</g>
				</g>
			</g>
		</g>
		<g>
			
				<linearGradient id="SVGID_22_" gradientUnits="userSpaceOnUse" x1="377.2779" y1="488.7867" x2="581.4618" y2="488.7867" gradientTransform="matrix(0.9885 0.1512 0.1512 -0.9885 -41.9147 912.7406)">
				<stop  offset="0" style="stop-color:#F2CD9B"/>
				<stop  offset="0.4284" style="stop-color:#FCA62F"/>
				<stop  offset="1" style="stop-color:#F3653A"/>
			</linearGradient>
			<path class="st27" d="M521.5,397c56,6.6,94.4,59.1,85.8,117c-8.6,58-61.1,99.8-117.1,93.2c-55.9-6.6-94.4-59.1-85.8-117.1
				C413,432.2,465.6,390.4,521.5,397z"/>
		</g>
		
			<linearGradient id="SVGID_23_" gradientUnits="userSpaceOnUse" x1="379.6908" y1="414.8819" x2="488.5204" y2="207.9709" gradientTransform="matrix(0.9885 0.1512 -0.1512 0.9885 82.338 100.1917)">
			<stop  offset="0" style="stop-color:#EF6746"/>
			<stop  offset="0.5992" style="stop-color:#FCA62F"/>
			<stop  offset="1" style="stop-color:#F1D2A1"/>
		</linearGradient>
		<path class="st28" d="M549.5,393.1c-10.7-5.3-22.4-8.9-35-10.4c-0.9-0.1-1.9-0.2-2.8-0.3c-0.3,0-0.6,0-0.9-0.1
			c-0.6-0.1-1.2-0.1-1.8-0.1c-0.4,0-0.7,0-1.1-0.1c-0.6,0-1.1-0.1-1.7-0.1c-0.4,0-0.8,0-1.2,0c-0.4,0-0.8,0-1.3,0
			c-0.1,0-0.2,0-0.3,0c-1,0-2,0-3,0c-0.1,0-0.1,0-0.1,0c-1.1,0-2.1,0.1-3.2,0.1c-0.3,0-0.7,0-1,0.1c-0.7,0-1.4,0.1-2.2,0.1
			c-0.4,0-0.8,0.1-1.2,0.1c-0.7,0.1-1.4,0.1-2,0.2c-0.4,0-0.8,0.1-1.1,0.1c-0.7,0.1-1.5,0.2-2.2,0.3c-0.3,0-0.6,0.1-1,0.1
			c-1,0.1-2.1,0.3-3.1,0.5c-0.1,0-0.2,0-0.3,0.1c-0.9,0.2-1.8,0.3-2.7,0.5c-0.3,0.1-0.7,0.1-1,0.2c-0.7,0.1-1.4,0.3-2.1,0.4
			c-0.2,0-0.3,0.1-0.5,0.1c-0.2,0.1-0.5,0.1-0.7,0.2c-0.5,0.1-1.1,0.3-1.6,0.4c-0.4,0.1-0.8,0.2-1.2,0.3c-0.5,0.1-1.1,0.3-1.6,0.4
			c-0.4,0.1-0.8,0.2-1.2,0.4c-0.5,0.2-1.1,0.3-1.6,0.5c-0.4,0.1-0.8,0.2-1.2,0.4c-0.5,0.2-1.1,0.4-1.6,0.5c-0.4,0.1-0.8,0.2-1.1,0.4
			c-0.6,0.2-1.1,0.4-1.7,0.6c-0.3,0.1-0.7,0.3-1,0.4c-0.7,0.3-1.3,0.5-2,0.8c-0.2,0.1-0.5,0.2-0.7,0.3c-0.9,0.4-1.8,0.7-2.7,1.1
			c-0.2,0.1-0.4,0.2-0.6,0.3c-0.7,0.3-1.3,0.6-2,0.9c-0.1,0-0.1,0-0.2,0.1c-0.2,0.1-0.4,0.2-0.6,0.3c-0.7,0.3-1.4,0.7-2,1
			c-0.3,0.2-0.7,0.3-1,0.5c-0.6,0.3-1.2,0.6-1.8,0.9c-0.3,0.2-0.7,0.4-1,0.6c-0.6,0.3-1.2,0.7-1.8,1c-0.3,0.2-0.6,0.4-0.9,0.5
			c-0.7,0.4-1.4,0.8-2,1.2c-0.2,0.1-0.4,0.2-0.6,0.4c-0.9,0.5-1.7,1.1-2.6,1.7c-0.2,0.1-0.4,0.3-0.7,0.4c-0.6,0.4-1.3,0.8-1.9,1.3
			c-0.3,0.2-0.6,0.4-0.9,0.6c-0.5,0.4-1.1,0.8-1.6,1.2c-0.3,0.2-0.6,0.5-0.9,0.7c-0.5,0.4-1.1,0.8-1.6,1.2c-0.2,0.2-0.4,0.3-0.6,0.4
			c-0.1,0.1-0.2,0.2-0.3,0.3c-0.4,0.3-0.7,0.6-1.1,0.9s-0.7,0.6-1.1,0.9s-0.7,0.6-1.1,0.9c-0.3,0.3-0.7,0.6-1,0.9
			c-0.4,0.3-0.7,0.6-1.1,0.9c-0.3,0.3-0.7,0.6-1,0.9c-0.4,0.3-0.7,0.6-1,1c-0.3,0.3-0.7,0.6-1,0.9s-0.7,0.7-1,1s-0.7,0.6-1,1
			c-0.3,0.3-0.7,0.7-1,1s-0.6,0.7-1,1c-0.3,0.3-0.7,0.7-1,1s-0.6,0.7-0.9,1c-0.3,0.4-0.6,0.7-1,1.1c-0.3,0.3-0.6,0.7-0.9,1
			c-0.3,0.4-0.6,0.7-0.9,1.1c-0.3,0.3-0.6,0.7-0.9,1.1s-0.6,0.7-0.9,1.1s-0.6,0.7-0.9,1.1s-0.6,0.8-0.9,1.1
			c-0.3,0.4-0.6,0.7-0.8,1.1c-0.3,0.4-0.6,0.8-0.9,1.2c-0.3,0.4-0.5,0.7-0.8,1.1s-0.6,0.8-0.8,1.2c-0.3,0.4-0.5,0.8-0.8,1.1
			c-0.3,0.4-0.5,0.8-0.8,1.2c-0.3,0.4-0.5,0.8-0.8,1.1c-0.3,0.4-0.5,0.8-0.8,1.2c-0.3,0.4-0.5,0.8-0.7,1.2c-0.3,0.4-0.5,0.8-0.8,1.3
			c-0.2,0.4-0.5,0.8-0.7,1.2c-0.2,0.4-0.5,0.9-0.7,1.3s-0.5,0.8-0.7,1.2c-0.2,0.4-0.5,0.9-0.7,1.3s-0.4,0.8-0.7,1.2
			c-0.2,0.4-0.5,0.9-0.7,1.3s-0.4,0.8-0.6,1.2c-0.2,0.5-0.4,0.9-0.7,1.3c-0.2,0.4-0.4,0.8-0.6,1.3s-0.4,0.9-0.6,1.4
			c-0.2,0.4-0.4,0.9-0.6,1.3c-0.2,0.5-0.4,0.9-0.6,1.4c-0.2,0.4-0.4,0.9-0.6,1.3c-0.2,0.5-0.4,0.9-0.6,1.4c-0.2,0.4-0.3,0.9-0.5,1.3
			c-0.2,0.5-0.4,1-0.5,1.4c-0.2,0.4-0.3,0.9-0.5,1.3c-0.2,0.5-0.3,1-0.5,1.5c-0.1,0.4-0.3,0.9-0.4,1.3c-0.2,0.5-0.3,1-0.5,1.5
			c-0.1,0.4-0.3,0.8-0.4,1.3c-0.2,0.5-0.3,1-0.5,1.6c-0.1,0.4-0.3,0.9-0.4,1.3c-0.1,0.5-0.3,1.1-0.4,1.6c-0.1,0.4-0.2,0.8-0.3,1.3
			c-0.1,0.5-0.3,1.1-0.4,1.6c-0.1,0.4-0.2,0.8-0.3,1.3c-0.1,0.6-0.2,1.1-0.4,1.7c-0.1,0.4-0.2,0.8-0.3,1.2c-0.1,0.6-0.2,1.3-0.4,1.9
			c-0.1,0.3-0.1,0.7-0.2,1c-0.2,1-0.3,2-0.5,3c-7.5,50.5,17.6,97.3,59.1,117.9l8.5,4.2c-41.4-20.6-66.6-67.4-59.1-117.9
			c0.2-1,0.3-2,0.5-3c0.1-0.3,0.1-0.7,0.2-1c0.1-0.6,0.2-1.3,0.4-1.9c0.1-0.4,0.2-0.8,0.3-1.2c0.1-0.6,0.2-1.1,0.4-1.7
			c0.1-0.4,0.2-0.8,0.3-1.2c0.1-0.6,0.3-1.1,0.4-1.7c0.1-0.4,0.2-0.8,0.3-1.2c0.1-0.5,0.3-1.1,0.4-1.6c0.1-0.4,0.2-0.9,0.4-1.3
			c0.2-0.5,0.3-1,0.5-1.6c0.1-0.4,0.3-0.9,0.4-1.3c0.2-0.5,0.3-1,0.5-1.5c0.1-0.4,0.3-0.9,0.4-1.3c0.2-0.5,0.3-1,0.5-1.5
			c0.2-0.4,0.3-0.9,0.5-1.3c0.2-0.5,0.4-1,0.5-1.4c0.2-0.4,0.3-0.9,0.5-1.3c0.2-0.5,0.4-1,0.6-1.4s0.4-0.8,0.5-1.3
			c0.2-0.5,0.4-0.9,0.6-1.4c0.2-0.4,0.4-0.8,0.6-1.3s0.4-0.9,0.6-1.4c0.2-0.4,0.4-0.8,0.6-1.3s0.4-0.9,0.7-1.3
			c0.2-0.4,0.4-0.8,0.6-1.2c0.2-0.4,0.4-0.9,0.7-1.3c0.2-0.4,0.4-0.8,0.7-1.2c0.2-0.4,0.5-0.9,0.7-1.3s0.5-0.8,0.7-1.2
			c0.2-0.4,0.5-0.9,0.7-1.3s0.5-0.8,0.7-1.2c0.3-0.4,0.5-0.8,0.8-1.3c0.2-0.4,0.5-0.8,0.7-1.2c0.3-0.4,0.5-0.8,0.8-1.2
			c0.3-0.4,0.5-0.8,0.8-1.1c0.3-0.4,0.5-0.8,0.8-1.2c0.3-0.4,0.5-0.8,0.8-1.1c0.3-0.4,0.6-0.8,0.8-1.2c0.3-0.4,0.5-0.7,0.8-1.1
			s0.6-0.8,0.9-1.2c0.3-0.4,0.6-0.7,0.8-1.1c0.3-0.4,0.6-0.8,0.9-1.1c0.3-0.4,0.6-0.7,0.9-1.1s0.6-0.8,0.9-1.1
			c0.3-0.3,0.6-0.7,0.9-1c0.3-0.4,0.6-0.7,0.9-1.1c0.3-0.3,0.6-0.7,0.9-1c0.3-0.4,0.6-0.7,1-1.1c0.3-0.3,0.6-0.7,0.9-1s0.7-0.7,1-1
			s0.6-0.7,1-1c0.3-0.3,0.7-0.7,1-1s0.7-0.6,1-1c0.3-0.3,0.7-0.7,1-1s0.7-0.6,1-0.9c0.4-0.3,0.7-0.7,1-1s0.7-0.6,1-0.9
			c0.4-0.3,0.7-0.6,1.1-0.9c0.3-0.3,0.7-0.6,1-0.9c0.4-0.3,0.7-0.6,1.1-0.9c0.3-0.3,0.7-0.6,1.1-0.9s0.7-0.6,1.1-0.9
			c0.3-0.2,0.6-0.5,0.9-0.7c0.5-0.4,1.1-0.8,1.6-1.2c0.3-0.2,0.6-0.5,0.9-0.7c0.5-0.4,1.1-0.8,1.6-1.2c0.3-0.2,0.6-0.4,0.9-0.6
			c0.6-0.4,1.3-0.9,1.9-1.3c0.2-0.1,0.4-0.3,0.7-0.4c0.9-0.6,1.7-1.1,2.6-1.7c0.2-0.1,0.4-0.2,0.6-0.4c0.7-0.4,1.4-0.8,2-1.2
			c0.3-0.2,0.6-0.4,0.9-0.5c0.6-0.3,1.2-0.7,1.8-1c0.3-0.2,0.7-0.4,1-0.6c0.6-0.3,1.2-0.6,1.8-0.9c0.3-0.2,0.7-0.3,1-0.5
			c0.7-0.3,1.3-0.7,2-1c0.3-0.1,0.5-0.2,0.8-0.4c0.7-0.3,1.3-0.6,2-0.9c0.2-0.1,0.4-0.2,0.7-0.3c0.9-0.4,1.8-0.8,2.7-1.1
			c0.2-0.1,0.5-0.2,0.7-0.3c0.7-0.3,1.3-0.5,2-0.8c0.3-0.1,0.7-0.3,1-0.4c0.6-0.2,1.1-0.4,1.7-0.6c0.4-0.1,0.7-0.3,1.1-0.4
			c0.5-0.2,1.1-0.4,1.6-0.5c0.4-0.1,0.8-0.3,1.2-0.4c0.5-0.2,1.1-0.3,1.6-0.5c0.4-0.1,0.8-0.2,1.2-0.3c0.5-0.2,1.1-0.3,1.6-0.4
			c0.4-0.1,0.8-0.2,1.2-0.3c0.5-0.1,1.1-0.3,1.6-0.4c0.4-0.1,0.8-0.2,1.2-0.3c0.7-0.2,1.4-0.3,2.1-0.4c0.3-0.1,0.7-0.1,1-0.2
			c0.9-0.2,1.8-0.4,2.7-0.5c0.1,0,0.2,0,0.3-0.1c1-0.2,2.1-0.3,3.1-0.5c0.3,0,0.6-0.1,1-0.1c0.7-0.1,1.4-0.2,2.2-0.3
			c0.4,0,0.8-0.1,1.1-0.1c0.7-0.1,1.4-0.1,2-0.2c0.4,0,0.8-0.1,1.2-0.1c0.7-0.1,1.4-0.1,2.2-0.1c0.3,0,0.7,0,1,0
			c1,0,2.1-0.1,3.2-0.1c0.1,0,0.1,0,0.2,0c1,0,2,0,3,0c0.5,0,1,0,1.6,0c0.4,0,0.8,0,1.2,0c0.6,0,1.1,0.1,1.7,0.1
			c0.4,0,0.7,0,1.1,0.1c0.6,0,1.3,0.1,1.9,0.1c0.3,0,0.6,0,0.9,0.1c0.9,0.1,1.9,0.2,2.8,0.3c12.6,1.5,24.3,5.1,35,10.4L549.5,393.1z
			"/>
		<g>
			
				<linearGradient id="SVGID_24_" gradientUnits="userSpaceOnUse" x1="397.4098" y1="407.0402" x2="561.4662" y2="570.5249" gradientTransform="matrix(0.9885 0.1512 0.1512 -0.9885 -41.9147 912.7406)">
				<stop  offset="1.219411e-03" style="stop-color:#FEEDDD"/>
				<stop  offset="1" style="stop-color:#F6C495"/>
			</linearGradient>
			<path class="st29" d="M523,386.9c61.3,7.2,103.5,64.7,94.1,128.3c-9.4,63.5-67,109.4-128.3,102.1
				c-61.3-7.2-103.5-64.7-94.1-128.3C404.1,425.5,461.7,379.7,523,386.9z M490.2,607.2c56,6.6,108.5-35.3,117.1-93.2
				c8.6-58-29.9-110.5-85.8-117S413,432.3,404.4,490.2C395.8,548.2,434.3,600.7,490.2,607.2"/>
		</g>
	</g>
</g>
<text transform="matrix(1 0 0 1 337.8728 885.1288)" class="st15 st30 st31">没有找到相关搜索</text>
<rect x="1168.1" y="708.8" style="fill:none;" width="0" height="2.5"/>
</svg>
