<?xml version="1.0" standalone="no"?><!DOCTYPE svg PUBLIC "-//W3C//DTD SVG 1.1//EN" "http://www.w3.org/Graphics/SVG/1.1/DTD/svg11.dtd"><svg t="1620557335833" class="icon" viewBox="0 0 1024 1024" version="1.1" xmlns="http://www.w3.org/2000/svg" p-id="9227" xmlns:xlink="http://www.w3.org/1999/xlink" width="200" height="200"><defs><style type="text/css"></style></defs><path d="M896.4608 479.488H438.0672a116.8896 116.8896 0 0 0-224.8704 0h-87.04a32 32 0 0 0 0 64h87.04a116.8896 116.8896 0 0 0 224.8704 0h458.3936a32 32 0 0 0 0-64zM325.632 564.4288A52.9408 52.9408 0 1 1 378.5216 511.488a52.992 52.992 0 0 1-52.8896 52.9408zM896.4608 192.7168H834.56a116.8896 116.8896 0 0 0-224.3072 0H126.3104a32 32 0 0 0-32 32 32 32 0 0 0 32 32h483.4816a116.8896 116.8896 0 0 0 225.28 0h61.44a32 32 0 0 0 32-32 32 32 0 0 0-32.0512-32z m-174.08 85.8624a52.8896 52.8896 0 1 1 52.8896-52.8896 52.9408 52.9408 0 0 1-52.7872 52.8896zM896.4608 766.3104h-149.8624a116.8896 116.8896 0 0 0-224.8704 0H126.3104a32 32 0 1 0 0 64h395.4176a116.8896 116.8896 0 0 0 224.8704 0h149.8624a32 32 0 0 0 0-64z m-262.2976 84.8896a52.9408 52.9408 0 1 1 52.8896-52.8896 52.9408 52.9408 0 0 1-52.8896 52.8896z" fill="#fca62f" p-id="9228"></path></svg>