<svg id="图层_1" data-name="图层 1" xmlns="http://www.w3.org/2000/svg" xmlns:xlink="http://www.w3.org/1999/xlink" viewBox="0 0 663.79 664.03"><defs><style>.cls-1{fill:none;}.cls-2{clip-path:url(#clip-path);}.cls-3{fill:url(#未命名的渐变_29);}</style><clipPath id="clip-path" transform="translate(-229.88 -886.78)"><rect class="cls-1" x="230" y="886" width="663.84" height="665.76"/></clipPath><linearGradient id="未命名的渐变_29" x1="229.88" y1="1218.79" x2="893.67" y2="1218.79" gradientUnits="userSpaceOnUse"><stop offset="0" stop-color="#f0e7d8"/><stop offset="0.2" stop-color="#e9d8c0"/><stop offset="0.62" stop-color="#d7b183"/><stop offset="1" stop-color="#c68c47"/></linearGradient></defs><g class="cls-2"><path class="cls-3" d="M879,1181.88l-63.36-62.16v-78.4c-.08-27.92,8.24-78.32-19.52-78.4H639.94l-39-58.72c-19.68-19.68-55-24.56-74.72-4.88L483.78,963H366.58c-27.84.08-59.92,22-60,49.92v102.64l-62,66.4a50.85,50.85,0,0,0,0,71.52l62,67.28V1423.4c.08,27.92,12.64,49,40.48,49.12H464.18L526.1,1536a50.41,50.41,0,0,0,71.28,0l62-63.52H757c27.84-.08,58.48-30.88,58.56-58.8v-98l63.36-62.24a50.87,50.87,0,0,0,.08-71.6ZM562.26,1372l-179-256.56H511.14l50.64,152.8,51.6-152.8H741.22Zm0,0" transform="translate(-229.88 -886.78)"/></g></svg>