<svg id="图层_1" data-name="图层 1" xmlns="http://www.w3.org/2000/svg" xmlns:xlink="http://www.w3.org/1999/xlink" viewBox="0 0 652.29 622.66"><defs><style>.cls-1{fill:url(#未命名的渐变);}.cls-2{fill:url(#未命名的渐变_2);}.cls-3{fill:url(#未命名的渐变_3);}.cls-4{fill:url(#未命名的渐变_4);}.cls-5{fill:url(#未命名的渐变_5);}.cls-6{fill:url(#未命名的渐变_6);}.cls-7{fill:url(#未命名的渐变_7);}.cls-8{fill:url(#未命名的渐变_8);}.cls-9{fill:#b0b0b0;}.cls-10{fill:url(#未命名的渐变_9);}.cls-11{fill:url(#未命名的渐变_26);}.cls-12{fill:url(#未命名的渐变_25);}.cls-13{fill:url(#未命名的渐变_12);}.cls-14{fill:url(#未命名的渐变_13);}.cls-15{fill:url(#未命名的渐变_14);}.cls-16{fill:url(#未命名的渐变_15);}.cls-17{fill:url(#未命名的渐变_16);}</style><linearGradient id="未命名的渐变" x1="512" y1="263.53" x2="512" y2="203.54" gradientTransform="matrix(1, 0, 0, -1, 0, 1026)" gradientUnits="userSpaceOnUse"><stop offset="0" stop-color="#e8e8e8"/><stop offset="0.6" stop-color="#f8f8f8" stop-opacity="0.5"/><stop offset="1" stop-color="#fff" stop-opacity="0"/></linearGradient><linearGradient id="未命名的渐变_2" x1="361.26" y1="814.2" x2="361.26" y2="651.32" gradientTransform="matrix(1, 0, 0, -1, 0, 1026)" gradientUnits="userSpaceOnUse"><stop offset="0" stop-color="#e8e8e8"/><stop offset="0.6" stop-color="#f9f9f9" stop-opacity="0.1"/><stop offset="1" stop-color="#fff" stop-opacity="0"/></linearGradient><linearGradient id="未命名的渐变_3" x1="599.61" y1="826.2" x2="599.61" y2="613.83" gradientTransform="matrix(1, 0, 0, -1, 0, 1026)" gradientUnits="userSpaceOnUse"><stop offset="0" stop-color="#e8e8e8"/><stop offset="0.8" stop-color="#f6f6f6" stop-opacity="0.1"/><stop offset="1" stop-color="#fff" stop-opacity="0"/></linearGradient><linearGradient id="未命名的渐变_4" x1="316.94" y1="443.75" x2="487.62" y2="443.75" gradientTransform="matrix(-1, -0.08, -0.08, 1, 681.16, -6.44)" gradientUnits="userSpaceOnUse"><stop offset="0" stop-color="#ebebeb"/><stop offset="1" stop-color="#c5c5c7"/></linearGradient><linearGradient id="未命名的渐变_5" x1="-1798.4" y1="-1992.69" x2="-1861.57" y2="-1983.68" gradientTransform="matrix(-0.46, -0.94, -1.05, 0.32, -2699.64, -492.7)" xlink:href="#未命名的渐变_4"/><linearGradient id="未命名的渐变_6" x1="1098.01" y1="1343.09" x2="1073.48" y2="1358.72" gradientTransform="matrix(-0.98, 0.22, -0.22, -0.98, 2145.01, 1788.86)" xlink:href="#未命名的渐变_4"/><linearGradient id="未命名的渐变_7" x1="719.99" y1="262.33" x2="719.99" y2="233.49" gradientTransform="translate(1225.71 1347.39) rotate(-150.61)" xlink:href="#未命名的渐变_4"/><linearGradient id="未命名的渐变_8" x1="691.96" y1="405.64" x2="691.96" y2="497.25" gradientTransform="matrix(1, 0, 0, -1, -164.69, 826.2)" gradientUnits="userSpaceOnUse"><stop offset="0" stop-color="#a5a5a5"/><stop offset="1" stop-color="#d1d1d1"/></linearGradient><linearGradient id="未命名的渐变_9" x1="715.76" y1="462.76" x2="577.91" y2="462.76" gradientTransform="matrix(1, 0, 0, -1, -164.69, 826.2)" gradientUnits="userSpaceOnUse"><stop offset="0" stop-color="#969696"/><stop offset="1" stop-color="#ababab"/></linearGradient><linearGradient id="未命名的渐变_26" x1="466.33" y1="510.11" x2="637.99" y2="500.99" gradientTransform="matrix(1, 0, 0, -1, -164.69, 826.2)" gradientUnits="userSpaceOnUse"><stop offset="0" stop-color="#fee38d"/><stop offset="0.31" stop-color="#fbbd6c"/><stop offset="0.99" stop-color="#f25d1a"/><stop offset="1" stop-color="#f25c19"/></linearGradient><linearGradient id="未命名的渐变_25" x1="194.4" y1="319.63" x2="414.42" y2="319.63" gradientUnits="userSpaceOnUse"><stop offset="0" stop-color="#fac335"/><stop offset="1" stop-color="#f66e48"/></linearGradient><linearGradient id="未命名的渐变_12" x1="325.49" y1="489.74" x2="481.86" y2="303.38" xlink:href="#未命名的渐变_8"/><linearGradient id="未命名的渐变_13" x1="461.21" y1="501.26" x2="654.22" y2="271.25" gradientTransform="matrix(1, 0, 0, -1, -164.69, 826.2)" xlink:href="#未命名的渐变_4"/><linearGradient id="未命名的渐变_14" x1="447.14" y1="442.18" x2="392.96" y2="442.18" xlink:href="#未命名的渐变_9"/><linearGradient id="未命名的渐变_15" x1="393.04" y1="411.19" x2="304.73" y2="411.19" xlink:href="#未命名的渐变_8"/><linearGradient id="未命名的渐变_16" x1="339.77" y1="501.52" x2="412.18" y2="415.22" gradientTransform="matrix(1, 0, 0, -1, -164.69, 826.2)" xlink:href="#未命名的渐变_4"/></defs><g id="暂无内容_数据" data-name="暂无内容/数据"><path class="cls-1" d="M735.24,822.46c0-16.56-100-60-223.24-60s-223.24,43.43-223.24,60Z" transform="translate(-164.69 -199.8)"/><path class="cls-2" d="M490.07,316.8a46.64,46.64,0,0,0-45.78-46.63,49.09,49.09,0,0,0,1-9.84,48.52,48.52,0,0,0-90.63-24.12,42,42,0,0,0-56,23.29A57.89,57.89,0,1,0,325,363.18H438.42a48.3,48.3,0,0,0,5,.27,45.66,45.66,0,0,0,5-.27h0A46.64,46.64,0,0,0,490.07,316.8Z" transform="translate(-164.69 -199.8)"/><path class="cls-3" d="M791.54,336.24A63.46,63.46,0,0,0,715,274.18a89.94,89.94,0,0,0-164.9-32,66.18,66.18,0,0,0-69,36.76c-2.17-.21-4.36-.33-6.58-.33a66.8,66.8,0,1,0,39.58,120.6H720.29a63,63,0,0,0,7.82.49,63.82,63.82,0,0,0,7.74-.49h.32v0A63.41,63.41,0,0,0,791.54,336.24Z" transform="translate(-164.69 -199.8)"/><path class="cls-4" d="M320.75,483.55c-29.14-3.36-57-41.14-58.16-42.77a54,54,0,0,1-5.69-10.26c-23.84-4-46.73-22.31-66.61-53.49a271.32,271.32,0,0,1-25.5-52.33,2,2,0,1,1,3.8-1.28c.32,1,31.27,91.38,86.77,102.76-3.36-11.35-1.08-21.18,4.28-26.51,5.62-5.58,13.9-5.62,21.62-.13l.24.2c8,7.84,7.86,14.35,6.31,18.45-3.05,8.06-13.7,12.7-22.64,13.13H265c-1.15,0-2.31-.1-3.45-.21a51.15,51.15,0,0,0,4.28,7.34c.28.37,28,38,55.37,41.12a2,2,0,0,1-.4,4Zm-36.68-66.79c2-5.33-1.71-10.57-5.25-14.06-6.08-4.26-12.19-4.34-16.36-.2-4.6,4.57-6.31,13.81-2.62,24.4,1.72.21,3.46.35,5.22.41C273.79,426.86,282,422.33,284.07,416.76Z" transform="translate(-164.69 -199.8)"/><path class="cls-5" d="M254.21,614.81c-10.69-5.9-5.93-41-48.68-35.72,0,0-8.44-8.85-9.22-13.32a.56.56,0,0,0-.86-.31l-1.22.93a.63.63,0,0,0-.27.6c.13,1.28,1.13,5.75,8.25,13.77,0,0-12.39,30.62,57.49,39.6C260.26,620.44,254.32,615.3,254.21,614.81Z" transform="translate(-164.69 -199.8)"/><path class="cls-6" d="M814,741.68c-26.27-15.06-36.6-34.48-40.64-48.13-4.4-14.85-2.55-26-2.47-26.49a2,2,0,0,1,3.94.68c0,.1-1.77,10.87,2.42,24.86C781.1,705.49,791,723.86,816,738.21a2,2,0,0,1-.56,3.69A2,2,0,0,1,814,741.68Z" transform="translate(-164.69 -199.8)"/><path class="cls-7" d="M704.42,754a2.09,2.09,0,0,0-1.91,2c0,2.77,1.62,7.51,2.46,9.77a2,2,0,0,1-.39,2.08c-3.15,3.57-3.15,12.21,5,20.22,15.46,12.86,35,6.68,31.62,4.51-4.39-2.87-4-2.82-10.84-21-5.87-15.44-18-4.76-22.06-7.84s-2.37-9.89-2.37-9.89Z" transform="translate(-164.69 -199.8)"/><polygon class="cls-8" points="499.95 333.22 503.45 328.95 554.58 416.29 551.07 420.56 499.95 333.22"/><polygon class="cls-9" points="413.22 306.32 416.73 302.04 503.45 328.95 499.95 333.22 413.22 306.32"/><polygon class="cls-10" points="499.95 333.22 551.07 420.56 464.35 393.66 413.22 306.32 499.95 333.22"/><polygon class="cls-11" points="282.67 336.56 194.4 308.26 414.21 300.59 502.48 328.88 282.67 336.56"/><polygon class="cls-12" points="414.42 338.66 194.77 338.66 194.4 308.26 414.21 300.59 414.42 338.66"/><polygon class="cls-13" points="283.57 551.01 195.3 522.72 194.4 308.26 282.67 336.56 283.57 551.01"/><polygon class="cls-14" points="502.48 328.88 503.38 543.33 283.57 551.01 282.67 336.56 502.48 328.88"/><polygon class="cls-15" points="228.27 431.2 228.35 427.04 282.45 336.84 282.37 340.99 228.27 431.2"/><polygon class="cls-16" points="140.04 402.97 140.13 398.82 228.35 427.04 228.27 431.2 140.04 402.97"/><polygon class="cls-17" points="228.35 427.04 140.13 398.82 194.23 308.61 282.45 336.84 228.35 427.04"/></g></svg>