<?xml version="1.0" standalone="no"?><!DOCTYPE svg PUBLIC "-//W3C//DTD SVG 1.1//EN" "http://www.w3.org/Graphics/SVG/1.1/DTD/svg11.dtd"><svg t="1620668509504" class="icon" viewBox="0 0 1024 1024" version="1.1" xmlns="http://www.w3.org/2000/svg" p-id="9084" xmlns:xlink="http://www.w3.org/1999/xlink" width="200" height="200"><defs><style type="text/css"></style></defs><path d="M511.984139 860.084767c-120.725572 0-242.555292-32.858362-242.555292-106.223277 0-57.331753 83.419921-92.852758 160.948669-101.577466l4.247744-0.509606L327.468728 479.665571c-3.455705-6.175653-6.713912-12.803607-9.602705-19.488867l-2.833535-5.722328-0.452301-2.2656c-9.404184-24.474414-14.19121-50.080605-14.19121-76.084862 0-116.986411 94.92086-212.190727 211.567533-212.190727s211.567533 95.204315 211.567533 212.190727c0 26.030863-4.787026 51.610448-14.219863 76.084862l-1.444908 3.682879 0.14224 0-1.105171 2.208295c-3.115967 7.309476-6.514367 14.33345-10.224876 20.961404L511.786641 786.777157l-43.764759-71.77879-1.671059 0.169869c-70.928423 6.090718-116.16572 25.720801-128.005372 36.653805l-2.068102 2.039449 2.153036 1.983167c15.494902 14.418384 74.950016 37.220716 169.276335 37.900192l8.441253 0 0 0c94.15645-0.679475 153.753803-23.425525 169.389922-37.815257l2.209318-2.010797-2.237971-1.983167c-8.668427-7.704472-40.194444-22.859637-88.74623-31.782867l37.276998-59.824527c77.754898 17.561981 120.528074 50.760081 120.528074 93.532233C754.540454 827.226404 632.738363 860.084767 511.984139 860.084767L511.984139 860.084767 511.984139 860.084767zM511.984139 261.6113c-49.739844 0-90.190115 40.62014-90.190115 90.530876 0 49.824779 40.449247 90.416266 90.190115 90.416266 49.76952 0 90.246397-40.562834 90.246397-90.416266C602.231559 302.231439 561.753659 261.6113 511.984139 261.6113L511.984139 261.6113 511.984139 261.6113zM511.984139 261.6113" p-id="9085" fill="#fca62f"></path></svg>